<mxfile host="app.diagrams.net" modified="2024-07-23T06:39:56.314Z" agent="Mozilla/5.0 (Windows NT 10.0; Win64; x64) AppleWebKit/537.36 (KHTML, like Gecko) Chrome/126.0.0.0 Safari/537.36" version="23.1.2" etag="E46BZ0b71Z4nnfohlv0v" type="github">
  <diagram name="Halaman-1" id="CJ68KNp0ZR9db8hdcrgI">
    <mxGraphModel>
      <root>
        <mxCell id="0" />
        <mxCell id="1" parent="0" />
      </root>
    </mxGraphModel>
  </diagram>
</mxfile>
